<?xml version="1.0" encoding="utf-8"?>
<!-- Generator: Adobe Illustrator 14.0.0, SVG Export Plug-In . SVG Version: 6.00 Build 43363)  -->
<!DOCTYPE svg PUBLIC "-//W3C//DTD SVG 1.0//EN" "http://www.w3.org/TR/2001/REC-SVG-20010904/DTD/svg10.dtd">
<svg version="1.0" id="Layer_1" xmlns="http://www.w3.org/2000/svg" xmlns:xlink="http://www.w3.org/1999/xlink" x="0px" y="0px"
	 width="2632px" height="1894px" viewBox="0 0 2632 1894" enable-background="new 0 0 2632 1894" xml:space="preserve">
<path fill-rule="evenodd" clip-rule="evenodd" d="M438.934,36.799c3.999,0,7.999,0,11.998,0C461.5,38,463,39.5,473,44.5
	c3.071,2.203,9.105,5.447,7.928,9.297C490,56.5,524,63,521.923,105.791c2.369,0.273,6.854-3.037,5.999-1
	C535.155,105.672,552.5,116.5,559.5,131c4.257,8.817,8.912,20.177,11.417,33.783c3.974,1.025,7.294,3.391,3.999,5
	c2.797,4.924,5.978,13.438,1,17.997c-4.026,1.026-4.442-1.557-5.999-2.999c-1.731,4.41,1.639,11.439,3,15.998
	c-4.694,2.638-6.675,7.989-12.999,8.998c0.529,0.805,3.71,6.376,1,8c7.816-0.795,16.082-2.777,22.997,4.998
	C590,239.5,589.5,254,587.5,262.5c-2,10-5,21-18.583,19.269c2.11,4.567,10.583,4.231,10.999,20.997
	c-1.916,15.734-3.106,26.891-11.999,32.996c-3.867,0.535-4.881-1.785-8.999-1c-2.941,2.126-0.207,3.724-2.999,6
	c-1.889-0.111-0.694-3.307-3-3c-4.358,2.307-6.225,7.107-10.998,8.999c8.147,22.319-15.961,25.447-27.997,19.997
	c-1.924-3.258-2.924-3.258-3-8.998c-1.122,10.396-9.746,18.471-9.998,28.996c-0.136,5.649,4.31,12.463,5.999,19.997
	c4.938,22.026,7.042,48.064,6.999,75.99c-8.755,14.909-28.29,19.037-40.995,29.997c4.265,24.646,9.661,50.754,17.405,72.218
	c17.5,48.5,19.097,68.628,18.591,90.762c-0.592,25.905-7.258,45.238-48.994,66.991c6.725,9.854,16.775,18.433,14.998,31.996
	c-1.536,11.724-15.999,19.296-16.998,30.996c1.804,5.196,6.63,7.368,8.999,11.999c-2.039,0.294-1.961,2.705-3.999,2.999
	c-3.279-1.387-4.737-4.595-6.999-6.999c-6.977,10.354-7.664,28.999-8.999,44.994c-1.767-0.072-2.267,0.428-4,0
	c-2.412-13.975,2.409-37.416,1-56.992c-12.711,2.62-21.182,9.48-26.997,18.997c3.753,14.822,5.557,31.868,2,43.995
	c-11.826,5.658-12.537,24.763-24.996,27.996c-4.605,1.932-63.939,19.932-71.991-4c-0.614-0.401,1.923-10.964,8.999-13.998
	c-1.868-3.464-7.816-2.849-11.999-3.999c-8.614-1.071-13.614-7.071-11.998-16.998c4.166-15.165,24.507-14.154,36.995-20.997
	c0.513-4.154,4.622-4.71,7.999-6c-10.764-15.232-24.013-27.98-33.996-43.994c3.896,0.23,5.185-2.148,7.999-3
	c-15.405-17.591-30.868-35.123-50.993-47.993c-38.54-6.27-90.181-18.749-126.984-32.996c-29.127-11.275-52.612-50.699-29.996-85.989
	c-12.369-10.628-21.001-24.994-24.997-43.995c-1.31-7.108-1.31-11.108,0-17.997c7.04-22.623,19.857-36.28,44.023-41.777
	c20,4,40,7.333,67.963,14.78c2.774-0.225,2.828-3.171,4.999-3.999c18.063,5.267,45.479,1.182,60.992,8.999
	c14.144-8.613,24.151,7.854,35.996,10.998c6.731-13.304,22.176-9.492,28.996,1c2.927,0.261,8.072-2.261,10.999-2
	c1.649-69.144-21.389-65.187-14.998-104.986c-21.963-8.563-36.733-43.918-21.998-64.992c11.005-15.74,43.89-30.423,58.993-47.994
	c10.412-12.114,17.12-15.336,22.997-28.996c-0.43-1.57-3.146-0.854-2-4c-2.166,0.809-5.45,0.426-7.999,3
	c-3.69-0.018-6.94-1.518-9.999-4c0-1.999,0-3.999,0-5.999c-1.162,0.163-1.778-0.221-1.999-0.999
	c-5.716,0.616-19.942-6.77-17.998-11.999c0.405-6.071-3.524-7.808-4.999-11.999c-1.995,1.881-1.578,3.632-5,2
	c2.73-4.75,2.146-7.625,5-12.998c-7.945-0.773-12.421-4.578-11.999-7.999c1.581-2.085,3.26-4.073,3.999-6.999
	c-5.408-4.735-1.445-10.275,0-12.998c1.555-2.277,2.62-3.38,6-3c-0.56-1.439-0.275,1.542,3.999,0c0.968-3.646-3.324-13.369,1-17.998
	c-6.296,1.369-12.444,2.971-13.998-19.998c28.554,4.469,7.826-45.021,0-47.993c-1.696-9.288-0.946-15.538,3.999-18.997
	c2.127,1.626,4.147-3.258,5-6c6.388-15.458,19.055-4.124,20.997-17.998c-0.832-18.496,6.217-29.111,20.997-31.996
	C400.116,43.311,418.943,39.474,438.934,36.799z M510.924,70.795 M554.919,328.763c2.357,0.309,1.86,3.473,4.999,3
	c3.281-6.296,0.187-5.127-2.999-7.999C555.899,325.077,555.938,327.449,554.919,328.763z M531.922,365.758
	c6.048,1.352,7.248-7.376,4.999-10.998C535.767,358.938,535.517,364.021,531.922,365.758z M231.959,553.734
	c-0.801-5.134,1.072-7.594,2-10.998c-6.32-0.388,1.773-4.064-3-6C231.763,542.547,229.191,550.595,231.959,553.734z
	 M343.945,811.702c-5.004-7.661-8.551-16.778-12.998-24.996c-2.355-0.022-2.944,1.722-6,0.999
	C329.764,796.56,338.151,807.157,343.945,811.702z M408.938,844.698c-0.567-3.1,0.271-7.604-3-7.999
	C406.817,839.485,407.186,842.784,408.938,844.698z"/>
<path fill-rule="evenodd" clip-rule="evenodd" d="M833.743,322.97c4.524,12.71,14.126,28.476,29.096,33.947c0,2.263,0,4.526,0,6.789
	c13.754,24.322,36.462,42.481,40.737,72.742c5.08,35.97-12.64,75.819-21.338,110.568c-5.817,23.238-8.847,48.498-10.67,72.742
	c-1.563,20.807,2.265,42.211,0.971,63.043c-2.415,38.879-15.72,64.756-27.158,95.051c-6.735,17.844-11.69,42.054-10.667,69.833
	c-1.48,2.724-3.725,4.682-4.852,7.759c1.454,14.198-4.865,23.811-6.788,35.886c-1.242,7.804-0.173,16.039-2.91,20.368
	c-6.368,10.072-37.481,13.817-49.465,6.789c-10.121,1.647-37.001,2.063-44.615-11.638c0.157-1.137,1.77-0.819,2.91-0.97
	c-5.559-5.953-10.76-9.623-8.729-20.368c2.082-11.018,11.565-35.132,13.577-47.524c0.341-2.093-1.165-4.804-0.97-6.79
	c1.787-18.139,17.717-24.86,18.429-47.525c0.38-12.103-2.706-20.64-1.94-32.978c1.881-30.261,4.975-58.843,16.488-78.561
	c7.451-12.759,18.528-23.358,13.579-45.585c-7.335-32.945-32.478-65.251-39.767-99.899c-2.737-13.019-2.353-26.473-5.819-40.737
	c-6.31-25.966-14.306-51.415-11.638-83.411c-16.358,0.854-20.38,1.678-33.947-3.879c-4.469,2.027,2.634,6.184-1.939,8.729
	c-7.075-0.683-11.206-4.312-14.549-8.729c4.692-11.967,8.585-44.115,9.699-63.043c0.531-8.997-0.287-17.656-0.97-28.127
	c-0.625-9.59-5.362-17.081-6.789-27.157c-2.645-18.672,11.424-36.952,11.64-54.314c0.08-6.488-0.941-13.793-1.94-19.398
	c-0.996-5.579-4.958-9.938-5.819-15.519c-1.734-11.219,3.613-25.655,5.819-38.796c4.549-27.106,6.573-49.387,13.578-73.712
	c5.41-18.785,9.48-33.661,23.278-41.706c18.648-1.318,33.045,2.116,49.464,4.849c10.501,1.748,22.794,5.339,31.037,4.849
	c2.89-0.171,5.149-2.454,7.759-2.909c3.247-0.566,7.331,1.449,11.639,0.97c4.271-0.475,6.41-3.171,9.698-2.91
	c12.516,0.994,24.586,17.034,32.977,24.248c3.54,3.042,8.999,4.177,12.609,7.759c3.831,10.816,5.377,16.933,3.881,30.066
	c22.257,12.518,70.739,11.74,59.163,50.435c-0.694,2.319-3.899,7.72-5.82,11.639c-4.244,8.662-15.08,22.425-21.337,29.097
	c-8.313,8.864-18.209,12.572-17.458,25.218c2.133,4.546,7.407,0.19,7.759,2.909c-5.567,1.596-3.521,4.582-7.759,4.85
	c-1.956,2.335,5.591,3.419,5.818,6.79c-1.376-0.084-2.745-0.16-2.908,0.969c0.75,2.481,6.251,0.215,5.819,3.88
	c-4.108-2.884-1.709,2.347-2.911,3.879c-2.734,3.489-8.556,5.75-12.607,7.759c-0.781,7.164-6.924,16.801-11.64,25.218
	c-0.647,1.156-4.698,7.522-12.609,5.819c1.449,4.816-16.674,13.24-27.155,8.729c-8.227,3.089-7.164,15.467-13.579,20.368
	c1.604,0.388,7.671,9.442,1.939,12.608C826.057,325.136,832.052,322.97,833.743,322.97z M741.603,121.231
	C750,96.25,763.534,92.729,770.699,74.676c-13.201,0.082-22.737,2.025-33.945,5.82c-2.848,25.37-15.531,48.847-11.64,76.622
	c0.837-7.245,5.661-10.504,10.669-13.579c-2.033-0.539-2.783-1.039-1.94-3.879c1.157-2.66,7.176-4.537,8.729-5.82
	C739.543,133.374,736,125.5,741.603,121.231z M871.568,150.329c5.713-0.633,12.832,10.727,14.549,12.609
	c0.904-5.886,7.273-11.507,9.883-15.688c-2.25-3.5-16.25-11.75-23.461-11.47C883.75,145.75,868.691,151.412,871.568,150.329z
	 M780.398,784.643c-1.575,6.891-3.063,16.431-2.91,24.247c0.395,20.01-8.388,37.531-12.607,57.224
	c-1.025,4.781-0.468,9.756-0.971,14.549c4.053-0.496,6.572,0.541,8.729,1.939c0.037-5.136,1.897-8.448,6.789-8.729
	c2.812,1.392,1.773,6.634,4.849,7.76c6.385-20.774,13.709-40.606,16.489-64.983c21.128-25.104,9.823-87.812,16.488-124.147
	C812.559,726.085,787.864,752.003,780.398,784.643z M761.97,909.758c2.74,1.578,6.676-0.619,9.7-0.97
	c-0.778-3.363,1.443-3.727,0.97-6.789c-3.839-0.363-7.043-1.362-9.699-2.908C763.416,903.446,762.449,906.358,761.97,909.758z"/>
<g>
	<path fill-rule="evenodd" clip-rule="evenodd" d="M1094.999,39.772c4.711,0,9.422,0,14.133,0c1.709,3.55,6.384,3.32,8.95,6.124
		c3.911,4.272,0.876,9.767,0,16.017c5.503-3.448,12.81-8.776,22.141-6.596c6.541,1.529,10.189,7.872,14.132,11.777
		c1.258-0.131,1.896-0.095,3.298,1.414c0.827,2.193,4.688,1.035,2.827,3.768c2.387,0.032,3.9-0.809,6.595-0.471
		c2.479,1.447,4.21,3.642,5.653,6.124c15.488,3.329,35.408,5.667,52.761,9.894c9.097,2.215,19.02,2.584,21.198,10.834
		c0.981,3.718,0.8,9.102,1.413,13.662c1.487,11.044,1.986,25.59,1.413,38.628c-1.434,32.61-13.929,64.399-12.719,94.216
		c0.251,6.179,0.338,13.422-1.885,18.843c4.343,5.991,2.017,16.06,4.24,24.025c0.964,3.452,4.443,6.327,4.711,9.421
		c0.245,2.848-1.624,5.873-1.885,9.422c-0.644,8.756,0.176,18.184,7.066,19.785c-2.523,4.229-3.631,9.874-6.596,13.662
		c-1.715,0.145-3.065-0.075-4.239-0.472c-0.998,3.02-4.639,7.964-3.769,12.72c0.598,3.268,4.423,3.5,2.826,8.95
		c-0.931,3.179-10.588,16.294-14.604,8.95c-3.44,7.249-5.34,13.855-9.893,19.314c0.883,5.912-3.274,6.887-2.355,9.893
		c-12.198,10.807-22.684,25.572-27.322,42.396c1.07,3.24,0.197,37.951,0,39.571c-0.262,6.893-3.583,29.96-5.182,37.216
		c-1.824,8.275-3.086,16.17-4.711,24.025c-2.946,14.234-9.512,27.484-16.017,40.041c-6.53,12.605-12.495,25.428-17.43,39.57
		c-5.852,16.768-11.309,34.041-12.248,54.174c1.559,0.807,21.996,36.829,16.958,80.555c-1.555,13.489-0.732,19.447-1.462,28.274
		c-1.073,12.983-4.289,27.956-0.422,41.446c7.413,6.035,21.195,28.691,9.422,38.156c-2.437,13.953,0.522,28.418,2.826,40.514
		c-0.856,0.801-3.493,0.725-3.769-0.473c0.979,8.203-4.079,10.369-9.422,12.248c-1.356,1.158,2.238,1.26,0.471,2.828
		c-8.998,4.846-22.194,4.527-37.686,3.768c-8.097-0.396-17.467,3.293-25.909,2.355c-6.093-0.676-13.098-3.439-15.075-8.479
		c1.087-2.938-0.195-5.566,0-8.951c-0.973-1.068-4.192,0.109-4.711-1.414c-0.709-2.232,0.16-4.154,0.942-6.123
		c-1.246-2.592-3.428-6.527-1.884-10.363c2.651-1.246,6.159,0.326,8.95,0.471c0.078-12.043,6.073-22.471,7.537-33.918
		c0.645-5.039-2.582-7.277-3.298-11.307c-0.538-3.029,0.834-7.41,0.942-10.834c0.332-10.469-4.109-21.096-7.537-31.092
		c-6.84-19.945-10.053-39.432-15.546-61.24c-3.345-13.279-5.614-26.971-5.652-41.926c-0.031-11.998,2.978-24.342,2.826-36.744
		c-0.09-7.348-1.747-15.191-2.355-23.082c-1.84-23.889-6.076-45-11.777-65.951c-3.688-13.559-9.298-26.547-11.776-40.514
		c-3.894-21.936-6.938-47.734,0-67.835c1.005-2.913,2.038-5.681,3.298-8.479c4.18-9.293,11.285-21.37,16.958-32.033
		c1.476-2.772,2.396-5.781,3.769-8.479c10.301-20.243,31.164-30.019,48.051-44.281c-1.189-3.515-3.078-9.634,0-12.72
		c-0.065-1.662-1.349-2.105-1.413-3.768c1.878-3.213,0.958-8.883,0.471-13.191c-0.859-7.594,1.315-17.412,0.471-22.611
		c-0.552-3.398-4.074-5.66-2.826-9.422c-2.884-2.611-6.454-4.537-8.479-8.008c-2.189-6.991,3.26-12.211,2.355-18.844
		c-0.45-3.304-3.179-8.074-3.769-13.66c-0.414-3.92-4.797-6.303-6.124-8.951c-0.694-1.385-0.711-4.682-1.413-6.596
		c-2.224-6.061-8.524-14.119-12.248-20.256c-5.149-8.484-13.215-21.783-17.901-31.563c-6.546-13.658-13.287-29.617-18.843-46.166
		c-1.678-4.995-5.151-12.461-4.711-16.487c0.564-5.165,8.114-15.489,10.835-20.257c11.438-20.047,24.748-36.874,37.687-54.645
		c-0.05-1.934-0.077-3.846,0.941-4.711c3.571-4.123,8.6-6.789,10.835-12.248C1084.768,47.442,1087.009,40.733,1094.999,39.772z
		 M1103.479,74.632c2.081,0.041,4.174,0.092,4.239-1.884c-2.29,0.407-2.42-1.349-4.71-0.942
		C1102.667,73.245,1103.489,73.522,1103.479,74.632z M1175.083,108.079c-1.187-1.002-7.394,10.992-4.24,11.777
		c2.949,0.81,7.24,5.894,6.595,14.132c9.063-0.072,21.266,9.445,18.372,21.198c-0.894,3.897-1.06,6.98-2.355,15.546
		c0.212-3.149-0.621,11.518-14.603,11.776c-2.602-0.071-4.656-1.939-6.124-3.768c-0.853,0.259-1.353,0.509-2.355,1.412
		c-4.31,3.909-2.128,6.807-2.355,11.307c-0.168,3.306-3.858,6.379-3.769,9.893c0.252,9.814,3.918,12.981,8.252,17.147
		c2.833,2.833,8.666,4.333,12.004,4.052c3.996-1.718,6.662-2.052,12.163-1.552c2.413-2.001,10.435-32.076,12.333-42.259
		c2.5-13.408,6.879-39.63,5.5-50.908C1198.789,116.162,1178.083,108.833,1175.083,108.079z M1065.321,129.277
		c-0.603-0.026-0.652-0.604-1.413-0.472c-0.079,0.55-0.745,0.512-1.413,0.472c-3.069,4.606-3.339,10.017-4.711,15.546
		c-0.175,0.704-1.209,0.421-1.414,0.941c-0.384,0.98-0.516,4.281-0.471,4.711c0.33,3.182,3.137,4.561,3.298,8.48
		c-0.337,1.279,2.222-0.338,1.884,0.941c-0.082,2.908,0.665,4.988,2.355,6.124C1063.397,152.721,1066.175,140.78,1065.321,129.277z
		 M1096.884,526.868c0.817,1.852,0.108,5.23,1.413,6.596c-0.517-3.275,3.402-6.305,1.413-8.01
		C1099.282,526.44,1098.319,526.892,1096.884,526.868z M1094.528,818.937c0.431,6.52,3.835,9.664,5.182,15.074
		c0.497,1.996-0.014,4.094,0.471,5.654c1.733,5.58,5.533,8.873,6.124,14.604c0.609,5.904-1.363,8.994-2.355,13.189
		c-1.143,4.836-1.282,10.488-1.884,15.545c-0.517,4.342-3.162,10.793,1.413,14.133c0.185-4.688-0.542-11.623,3.769-11.777
		c3.466-0.123,3.019,5.086,5.653,5.184c-0.177-9.496-2.202-19.207-2.355-28.736c-0.139-8.604-0.973-19.277,0-27.322
		c1.975-16.342,1.762-34.053-2.355-49.936c-3.417-13.18-6.651-26.234-11.306-37.686c-0.027-0.287-0.07-0.559-0.472-0.471
		C1095.291,771.157,1093.065,796.8,1094.528,818.937z M1151.528,903.731c0.347-1.169,0.001,0.109,0.534-1.669
		c-0.438-1.688-0.777-4.333-1.476-3.513C1150.701,900.476,1150.128,903.091,1151.528,903.731z M1101.123,917.864
		c1.929,0.762,2.482,1.039,4.239,0c-1.52-3.479,0.805-7.396,0.942-8.951C1103.529,910.849,1101.873,913.903,1101.123,917.864z"/>
</g>
<path fill-rule="evenodd" clip-rule="evenodd" d="M1535.108,103.255c1.311,2.316,8.531,3.358,6.856,4.746
	c1.969,0.616,0.223,4.695-1.055,6.857c3.423,4.142,7.852,9.215,6.328,13.185c3.902,1.507,1.771,5.411,6.856,5.273
	c-0.131,0.573-1.049,0.358-1.055,1.056c1.479,1.156,4.225,2.994,4.219,3.691c0.679,1.431,1.099,0.74,0,2.637
	c0.938,1.348,2.453,3.6,1.055,4.219c0.516,0.54,1.043,1.067,1.583,1.582c-3.525-0.852,2.706,18.587,3.691,19.514
	c18.079,7.652,26.745,13.652,34.412,28.652c18.1,27.042,16.293,81.712,28.875,114.273c1.458,9.728,1.772,12.611,1.056,18.986
	c-1.233,10.971-11.392,24.948-22.679,23.733c-3.669-0.396-15.621-10.898-18.459-14.24c-5.305-6.246-5.051-14.438-8.438-22.15
	C1565.75,317,1534.249,351.417,1528,400c-1.939,15.082-1.985,40.646-2.912,57.138c-0.587,10.45-11.572,51.35-13.185,56.959
	c-7.237,25.178-19.217,46.41-30.59,68.563c-7.57,14.744-16.51,29.129-21.623,43.773c-2.731,7.826-4.414,19.551-1.582,30.063
	c16.94,20.078,23.188,49.469,24.788,83.855c0.354,7.609,0.697,15.336,1.055,23.205c0.92,20.26-2.652,40.238,3.691,56.432
	c7.895,10.104,22.063,14.445,17.932,31.645c-0.427,1.777-2.034,3.527-2.109,5.801c-0.216,6.5,4.365,15.168,6.856,21.623
	c2.787,7.225,5.932,13.639,7.91,20.041c-1.319,0.438-2.07,1.445-3.691,1.582c-2.543-7.828-5.238-15.506-10.021-21.096
	c0.923,9.049,5.922,15.492,4.746,23.732c-6.959,6.402-13.802,9.288-23.016,13.435c-7.396,3.222-21.25,8-33.942,7.661
	c-15.289-0.408-36.018,4.674-44.302-4.746c-3.299-3.752,1.857-11.018,1.055-16.35c-2.146-0.037-2.498,1.721-5.273,1.055
	c-1.43-6.832-5.257-11.268-5.802-18.986c6.38-2.963,12.931,2.357,18.459,3.693c3.374-13.855,4.875-29.582,10.548-41.139
	c-3.417-7.588-3.175-18.396-4.747-29.006c-1.229-8.295-5.524-16.572-8.965-25.314c-3.277-8.328-5.806-17.143-8.438-25.316
	c-5.658-17.563-11.383-35.838-15.295-52.211c-3.954-16.553-5.837-34.008-4.746-53.268c0.359-6.357,1.632-13.883,0.527-21.623
	c-4.057-28.418-9.183-54.303-16.877-79.637c-4.64-15.275-9.91-29.33-14.239-43.773c-6.063-20.229-11.712-45.79-9.493-68.035
	c3.646-22.392,8.031-34.505,12.781-44.005c4.947-11.028,21.159-38.595,35.212-51.981c4.288-6.435,15.621-14.102,22.15-22.15
	c9.471-8.618,7.471-7.285,13.712-15.295c1.191-4.349,0.426-2.657,3.165-10.021c-9.896,1.005-18.438,7.931-26.37,12.657
	c-8.054,3.186-17.521,3.041-28.479,4.747c-2.647,0.411-4.694,2.085-8.438,1.582c-8.334-1.118-14.964-10.747-14.767-20.568
	c0.315-15.721,10.656-32.063,16.349-39.027c0.194-0.897,4.016-5.851,4.747-7.911c2.925-4.049,7.534-11.434,11.603-16.877
	c0.066-0.945,2.422-5.565,3.367-7.655c2.192-4.848,8-16.5,13.51-27.153c-2.867-3.051,2.496-5.726,3.164-8.438
	c0.425-1.725-0.676-4.122,0-6.329c1.283-4.19,5.681-6.979,7.384-10.021c-6.335-2.434-16.703-0.819-16.35-11.075
	c1.119,8.257,11.465,11.481,14.239,3.165c-6.526-6.764-4.738-15.933-3.691-26.898c0.734-7.687-0.552-17.967-1.582-25.842
	c-0.7-5.354-3.126-10.092-1.055-16.35c1.345-4.064,5.483-6.667,6.856-10.02c0.773-1.891,0.08-3.99,0.527-5.803
	c2.308-9.366,9.617-12.479,15.294-17.403c1.968,1.792,4.273-1.699,7.384,0c4.183-1.795,5.843-6.112,11.075-6.856
	c7.839-6.004,16.938-10.21,29.534-8.965c21.361,2.109,36.265,16.471,46.938,28.479c-0.214,1.654,1.109,4.823,3.691,5.274
	C1524.742,94.6,1535.429,103.56,1535.108,103.255z M1428.047,260.419c-2.079-0.145-1.612,2.255-3.691,2.109c0,0.879,0,1.758,0,2.638
	c-1.32-1.057-2.344,1.562-3.165,2.637c2.326-1.522,1.519,0.216,4.747,0C1427.241,265.982,1430.331,262.595,1428.047,260.419z
	 M1453.89,823.679c-0.664-17.443-1.523-34.691-7.911-46.41C1449.136,792.218,1446.219,813.243,1453.89,823.679z M1455.472,887.493
	c4.515-2.854,6.869,6.393,8.966,4.221c-0.895-9.303-4.232-16.162-5.274-25.316c-0.527,0-1.055,0-1.582,0
	C1456.239,872.442,1454.103,880.495,1455.472,887.493z M1448.615,917.556c3.478-0.039,7.28,0.248,10.021-0.527
	c0.202-0.717,0.34-5.018-0.527-6.328c-1.729,2.471-3.422-2.912-7.911-1.055C1449.498,912.11,1448.186,913.962,1448.615,917.556z"/>
<path fill-rule="evenodd" clip-rule="evenodd" d="M2340.32,192.493c-2.111,1.566-4.994,2.528-6.348,5.643
	c-3.598,8.49,23.806,55.169,11.285,47.252c2.152,9.729,9.702,15.286,14.81,23.274c3.743,5.854,6.816,11.966,10.579,18.337
	c11.822,6.103,14.821,13.419,23.274,19.748c14.976,11.212,39.584,14.834,51.485,27.507c3.637,3.872,4.15,7.58,5.642,14.811
	c5.644,27.346,13.104,48.157,10.578,76.169c-2.639,29.278-13.519,56.036-19.041,86.749c-1.737,9.663-5.226,19.997-5.643,29.621
	c-0.202,4.667,1.28,9.427,0.706,14.106c-0.398,3.257-2.739,6.652-2.821,9.873c-0.257,9.966,8.06,20.484,7.053,29.622
	c-0.4,3.624-4.522,5.806-4.938,9.169c-0.845,6.831,5.21,9.448,6.348,15.516c-0.086,1.795-1.026,2.734-2.821,2.821
	c0.282,1.834,2.105,2.128,2.116,4.231c2.063,22.44,0.46,51.125-0.705,76.17c-0.577,12.401-2.476,25.678-1.411,36.674
	c0.826,8.535,3.82,17.804-0.705,26.801c2.704,6.767,4.541,12.063,4.23,19.748c-0.208,5.208-3.019,10.64-2.114,15.517
	c1.089,5.874,12.149,14.125,3.526,23.978c1.326,1.965,5.221,1.362,7.053,2.822c-0.83,6.606,1.834,11.698,3.526,17.631
	c6.478,0.137,13.662,1.202,14.811,8.464c6.291,1.599,9.913,1.959,17.632,1.411c5.059,2.229,7.61,6.966,11.989,9.874
	c4.037-6.437,15.832-1.057,20.454-3.527c2.511,4.776,5.787,8.786,8.463,13.4c13.47,3.691,22.577,11.745,36.674,14.811
	c-0.145,2.207,0.477,5.178-0.705,6.348c3.521-1.876,4.972,4.669,3.525,7.759c-5.114,2.302-7.333,3.142-10.578,7.053
	c-14.586-0.127-23.021-2.065-35.969-3.527c-0.999,0.134,1.117,5.209-0.705,6.349c-17.23,1.261-28.898-1.493-40.907-7.053
	c-20.316,0.166-35.259-2.025-50.779-6.348c-0.859-0.239-1.813-1.927-2.821-2.116c-6.334-1.201-15.369,1.389-21.158-2.116
	c-1.005-3.24-2.024-4.926,0.705-7.054c-1.121-1.698-3.23-2.375-4.23-4.23c-3.385-6.277-6.885-13.777-6.348-27.505
	c0.177-4.519,0.801-8.203,0.705-13.4c-0.258-14.008-5.987-29.456-8.463-45.138c-0.582-3.682-0.205-7.49-0.707-11.285
	c-1.703-12.901-8.539-24.19-10.578-36.675c-0.836-5.114-0.12-9.955-0.705-14.811c-1.892-15.71-8.701-30.18-12.695-45.843
	c-1.807-7.085-1.107-14.734-2.82-21.158c-0.59-2.21-2.494-4.722-2.822-7.053c-0.393-2.801,0.928-5.806,0.707-8.464
	c-0.291-3.472-3.051-7.517-3.528-11.283c-1.067-8.439-1.958-17.185-2.13-24.163c-0.81-32.799,7-37,11.299-53.418
	c-1.209,4.618-4.073,9.093-9.874,9.874c-2.341,9.563-11.69,11.807-18.336,16.928c-5.737,4.42-8.254,11.218-13.4,16.22
	c7.354,39.194,12.224,80.873,16.927,122.718c1.799,1.753,1.067-5.007,4.936-3.525c2.377,9.573-4.211,22.192,0,33.147
	c-0.122,2.463-1.622,3.549-3.525,4.232c2.627,19.002,7.83,35.427,9.168,55.716c3.079,1.154,5.939,2.525,6.349,6.348
	c15.492-1.856,22.079,5.191,33.146,7.759c0.287,3.577-1.672,4.909-2.82,7.053c-11.695,1.62-24.753,5.669-37.38,2.114
	c-2.547,0.98-4.093,2.961-6.347,4.233c-18.414-2.216-45.821,2.737-62.065-4.233c-1.957-0.166-0.646-2.89-2.114-4.937
	c-6.093,4.692-6.739,14.866-16.222,16.928c-6.942,1.507-15.742-0.213-23.274-1.411c-0.586-1.765-1.933-2.77-2.116-4.938
	c4.168-5.126,10.16-4.064,14.812-7.757c18.56-14.733,26.65-48.077,36.673-71.233c0.742-3.092-2.385-2.316-2.114-4.937
	c2.466-15.251-3.17-27.629-7.758-38.085c2.053-1.971,3.496,0.646,4.937,1.41c-1.755-16.818-4.705-32.438-7.758-47.959
	c-22.143,31.031-34.092,68.798-52.191,102.971c-17.97,33.929-48.267,80.971-55.186,89.272c-4.842,8.303-7.609,11.07-13.227,16.518
	c-74.832,13.597-159.162,13.874-241.907,17.634c-31.357,1.424-62.973,3.649-93.803,3.525c-17.98-0.072-34.963,2.738-50.779-0.706
	c-23.066-5.021-43.972-14.199-65.591-22.568c-15.086-5.84-27.582-14.943-47.253-16.927c-22.649-2.283-41.861,0.23-59.243-9.872
	c-1.346-8.294,0.234-15.655,3.526-21.159c4.7-0.907,1.141-2.349,6.347-3.527c-1.268-2.258-4.645-2.407-6.347-4.23
	c-0.069-2.892-0.138-5.78,0.706-7.759c11.937-7.575,26.505-12.52,38.79-19.746c5.686,2.305,10.615,5.369,16.221,7.757
	c7.046-7.816,6.038-18.612,9.873-30.326c3.732-11.397,12.251-22.286,17.632-33.854c5.524-11.872,9.869-24.853,14.813-36.675
	c10.045-24.032,21.885-47.136,31.031-71.938c9.367-25.405,17.379-51.688,22.569-80.4c5.144-28.458,11.069-56.691,17.631-84.634
	c5.508-23.458,7.581-52.471,11.99-79.696c1.484-9.165,5.112-17.845,8.464-25.39c1.606-3.618,2.665-7.689,5.642-9.169
	c7.488-23.142,34.388-35.501,63.475-33.148c20.011,1.62,30.918,13.009,40.906,26.096c19.989,26.196,41.589,58.132,57.128,86.749
	c29.308,46.269,49.774,107.707,82.515,154.456c17.813-10.869,63.129-35.499,62.771-57.128c-0.349-21.097-18.955-25.197-34.56-35.264
	c-2.75-1.774-10.884-6.84-0.705-25.389c2.955-5.385,5.866-12.761,6.348-19.748c-1.604-2.394-5.155-2.84-7.759-4.233
	c-6.429-15.081,2.863-29.089,14.812-32.442c-0.956-7.744-12.37-4.892-16.221-9.874c-16.559-21.423-1.293-42.035-0.706-45.139
	c-2.396,0.557-4.784-0.216-4.23-0.704c-0.737-1.19-4.338-3.119-2.117-4.937c2.89-3.806,4.087-9.679,3.526-14.812
	c-0.516-4.719,13.639-13.363,16.926-16.221c-0.967-0.797,6.813-11.886,7.054-9.169c-0.968-10.95-9.252-6.23-10.46-13.106
	c-0.055-0.309-0.182-2.016-0.175-2.46c0.04-2.723,0.434-14.096,4.993-21.813c-4.016,0.487-3.272-9.001-4.232-14.811
	c-1.959-1.551-6.214-5.238-6.348-8.464c0.078-2.498,2.332,1.5,2.116-0.705c-15.243-8.522-6.32,6.854-7.053-21.863
	c1.103-4.25,1.528-29.481-2.116-38.084c-0.474,3.909-4.553-19.728-4.649-21.548c-0.628-11.876,4.628-21.897,3.944-33.464
	c7.795,3.817-0.062-7.235,0.705-8.462c2.215-3.617,10.264-43.661,35.265-61.359c0.95-0.673,9.371-1.676,12.597-6.224
	c6.836-9.637,22.138-2.3,31.523-9.84c34.746-27.912,70.064-24.717,109.25-5.907C2271.248,61.353,2355.195,182.2,2340.32,192.493
	 M1824.765,619.184c-10.299,17.612-20.175,36.793-30.327,54.306c-3.51,6.056-9.154,11.488-11.284,16.927
	c-1.836,4.688-3.202,12.837-2.116,16.222c1.69,5.268,9.68,9.816,14.106,15.517c3.313,4.266,7.534,11.028,9.168,16.222
	c1.782,5.661,4.447,14.96,2.821,23.273c-1.254,6.415-6.402,7.374-7.759,16.22c26.857,0.179,49.958,4.114,77.581,3.528
	c1.247-1.34,0.656-4.516,2.115-5.643c7.677-0.699,9.286-12.915,16.222-12.695c5.955,0.188,3.12,5.052,9.169,6.348
	c10.838-3.883,23.918-14.128,38.084-12.695c12.041,1.217,17.104,9.728,23.98,17.632c6.834-0.687,14.178-0.866,21.862-0.705
	c-9.751-19.248-26.387-32.877-39.495-49.37c-13.185-16.587-24.233-35.497-35.263-54.306c-22.011-37.531-40.812-78.784-50.781-128.36
	c-0.038-0.429-0.104-0.835-0.704-0.704C1854.104,570.204,1839.209,594.48,1824.765,619.184z M2502.533,867.439
	c3.969-0.446,5.406,2.99,8.463,1.412C2511.318,864.785,2504.129,865.625,2502.533,867.439z"/>
<path fill-rule="evenodd" clip-rule="evenodd" d="M2531.347,1088.783c0.653,22.717-28.6,38.066-6.244,40.575
	c-2.008,6.254-6.169,6.254-12.482,0c1.381,17.975,13.714,22.642,2.714,30.642c-13.657,10.243,3.899,17.018,9.518,32.181
	c17.149,35.819-12.36,85.421-15.354,95.585c9.809,28.348-33.747,30.234-41.458,23.886c-28.372-8.318-27.541,35.089-27.991,45.564
	c-0.296,6.883,0.864,18.523,1.56,28.091c2.176,29.966,13.018,66.945,16.389,101.44c1.307,13.376,4.065,28.575,3.12,41.359
	c-0.961,13.035-4.767,26.279-7.802,39.015c-3.114,13.059-8.74,28.117-7.804,38.237c0.346,3.734,2.066,7.817,5.463,10.146
	c-3.39,6.887,2.755,11.856,6.24,16.385c3.635-3.471,9.965-2.142,13.267,0.781c1.492-4.272,4.78,0.581,5.462-2.34
	c4.088,6.856,14.055,10.149,21.852,10.924c4.631,8.533-11.481,12.182-15.607,7.022c-14.887,17.887-36.423,29.125-60.085,38.237
	c-3.013,4.27-5.354,9.212-7.806,14.045c-0.438,3.559,2.943,3.299,2.344,7.021c-1.115,2.269-3.794,2.973-6.244,3.901
	c-0.895,5.036-0.764,8.345,0.78,12.488c-0.006,3.372-3.68,3.081-4.682,5.461c2.492,6.962,0.048,14.03,3.12,20.288
	c-0.663-0.145-0.735,0.304-0.78,0.78c-0.115,3.264-3.498,3.263-5.461,4.683c-1.06,0.24-0.647,1.952-0.781,3.119
	c-17.464,3.422-17.914,35.207-39.017,27.313c-0.833-4.475,1.361-5.925,1.562-9.363c-9.401,0.162-14.09,21.858-30.435,14.826
	c-0.983-3.592,0.089-6.214-0.779-8.585c-1.769,5.187-12.604,16.01-21.067,7.804c-0.807-7.83,2.998-11.047,4.682-16.387
	c-11.916-3.372-21.635,16.248-35.896,7.804c0.037-7.593,7.111-13.268,12.484-17.948c-1.531-2.109-9.436,1.034-9.364-1.561
	c0.238-8.703,3.273-18.576,7.805-24.969c8.525,0.314,14.698-6.62,21.851-9.364c8.265-3.173,17.789-1.294,24.969-7.025
	c2.302-0.818,2.714-3.529,3.901-5.461c2.893,0.553,3.351-1.332,6.243-0.778c3.049-6.058,6.378-11.831,11.702-15.608
	c0-2.082,0-4.161,0-6.243c1.377-2.008,3.396-3.369,4.684-5.462c1.783-17.35,15.083-31.781,5.463-49.161
	c1.795-2.822,11.68-9.831,10.145-4.682C2405.5,1553,2400.5,1476,2369.333,1442.667c-8.667,6.667-18,13.666-38.53,44.08
	c-6.214,9.205-10.881,11.776-24.189,39.798c-17.947,37.788-9.946,82.788-8.586,103.785c0.403,6.226,0.32,12.047,0,17.165
	c-2.012,32.38-13.319,51.721-27.31,74.133c-11.052,17.705-32.718,34.038-57.745,35.895c-23.901,1.772-52.242,1.227-78.813-0.781
	c-28.033-2.12-58.394-1.934-83.494-0.78c-9.721,0.447-53.098-2.485-64.767-3.9c-27.12-3.295-54.55-10.91-87.396-6.243
	c-17.869,2.54-40.701,11.08-53.063,21.847c-3.361,2.931-4.172,6.11-7.802,8.586c-23.296,15.891-50.428,22.181-84.274,26.531
	c-6.788,9.72-17.322,10.627-27.311,15.605c-13.023,6.488-17.495,25.358-33.555,28.091c-1.871-2.552-4.425-4.419-6.243-7.021
	c-0.191-9.296,6.918-11.29,9.363-17.946c-31.314,0.797-55.431,14.521-75.691,28.871c-0.613,3.548-3.543,4.779-4.682,7.803
	c-20.215,4.303-38.063,4.925-57.743,1.562c-5.059-5.731-26.501-21.245-47.601-17.17c-4.415,0.853-10.273-2.729-13.267-6.24
	c-23.105,4.209-48.355,1.941-69.448,8.583c-3.473-2.231-3.364-6.264-0.779-9.363c5.308,0.367,9.539-0.345,13.264-1.561
	c1.298-3.703-2.902-0.864-0.779-2.342c0.248-2.078,4.284-0.96,7.803-1.562c-6.681-2.246-15.272,0.327-21.847,0.782
	c0.124,0.914-27.19,5.495-39.019,1.562c-10.328-3.435-37.725-43.387-40.578-71.01c-2.686-26.025,20.059-24.935,36.676-19.509
	c-0.61-6.06-10.362-21.359-3.12-28.093c14.56,4.688,30.074,8.421,40.577,17.168c1.031,10.134-2.504,15.703-6.242,21.069
	c6.391,9.448,26.671,1.866,37.455,0.779c6.549-0.66,13.334,0.563,20.289,0c9.26-0.748,18.179-2.559,28.092-3.121
	c12.145-0.689,25.033-2.332,36.674-2.342c31.073-0.025,69.942-1.421,99.103-5.461c9.295-1.288,19.294-2.544,24.189-4.682
	c5.104-2.233,9.545-8.842,14.046-13.265c10.75-10.569,110.345-132.636,134.995-161.529c15.583-18.266,32.342-32.855,57.744-39.015
	c14.589-3.541,34.407-6.259,50.722-7.805c50.629-4.798,105.58-13.854,160.747-17.167c17.681-1.063,35.564-4.112,50.722-7.804
	c15.615-3.802,24.708-14.457,35.896-22.631c3.323-25.546,9.386-48.355,13.265-73.349c-0.712-2.619-1.451-0.387-3.9-0.781
	c0.089-3.811-0.421-8.224,0.776-10.924c1.689-1.76,7.406,2.121,5.466,0c-9.42-10.299-20.087-30.965-4.087-60.299
	c6.225-11.413,10.906-13.188,18.667-16c15.175-5.5,39.711-10.824,46.667-15.333c13.405-8.688,21.975-16.759,30.666-21.333
	c-0.425-9.405-17.206-13.075-19.332-36.668c-0.751-8.333-5.001-28.083,16.444-52.695c9.536-10.944,27.916-4.256,21-38.793
	c-5.986-29.902,22.154-46.708,24.189-78.032c5.833-89.235,81.865-85.313,91.298-92.077
	C2450.438,939.102,2530.282,1073.382,2531.347,1088.783 M1878.213,1624.087c-2.665,4.875-5.4,9.684-7.022,15.607
	c32.269,4.892,72.011,1.559,107.685,0.778C1949.472,1630.862,1913.464,1627.851,1878.213,1624.087z"/>
<path fill-rule="evenodd" clip-rule="evenodd" d="M1029.715,955.218c23.693-5.293,65.712,22.376,78.092,40.413
	c18.444,11.525,41.494,53.51,47.199,84.66c-4.041,31.188,10.907,75.528,7.661,101.71c-0.087,18.484-2,34-16.651,52.625
	c24.699,2.831,65.113-7.033,86.159,6.742c4.324,9.796,11.458,15.644,12.734,25.474c10.373,79.842-23.23,162.702-27.72,235.248
	c-0.474,7.632-2.081,11.574-2.997,17.23c-1.258,7.766,7.703,16.547,1.499,21.727c2.559,54.203-36.172,87.146-40.455,132.61
	c-1.282,13.568,1.32,26.36-7.493,35.961c4.7,10.204-0.944,19.604-4.495,27.72c-0.612,4.108,3.801,3.189,4.495,5.994
	c0.896,4.47-5.396,2.903-2.997,6.743c0.259,5.733,7.897,4.088,10.49,7.49c2.463,3.396-3.719,3.467-3.748,6.742
	c11.148,11.064,43.559,12.641,52.444,16.483c1.485-1.511,0.221-5.771,3.745-5.244c2.891,0.855,3.352,4.139,3.747,7.492
	c13.421-2.729,28.258,9.35,44.952,10.489c0,1.997,0,3.995,0,5.992c5.541,0.951,11.034,1.952,14.982,4.496
	c0.108,6.08-2.687,10.485-4.495,16.482c-7.176,1.905-16.4,0.121-22.476-1.499c-1.853,1.941,1.617,2.786,1.499,5.245
	c-0.013,2.255-1.763,3.005-2.996,2.996c-34.774-0.803-51.771-14.588-80.915-16.482c-0.057,3.798,1.712,7.21,0,10.489
	c-24.476,2.88-47.934-13.729-69.674-20.977c-0.146-3.643-0.17-7.164,1.498-8.991c-1.282-4.464-4.616-6.872-6.744-10.489
	c6.307-49.438,9.399-105.336,14.984-156.582c-10.413-7.952-17.178-18.118-32.963-14.235c-5.184,1.276-15.463,12.05-20.979,2.247
	c-44.79,26.306-85.191,54.194-125.115,84.66c-39.236,29.942-76.33,62.809-118.373,90.653c-8.314,5.504-27.115,7.525-39.707,10.487
	c-39.313,9.254-78.461,22.81-119.872,29.969c-62.843,10.864-126.896,20.039-197.039,23.226
	c-19.965,0.907-37.169-1.121-50.197-10.489c-9.038-13.311-22.54-24.51-23.974-44.201c-0.833-11.427,3.443-18.946-4.495-26.223
	c-38.012-34.839-46.719-97.519-72.672-138.602c0.229-2.342-2.165,1.903-2.248-0.749c-25.979-49.528-47.777-97.694-84.659-138.602
	c-31.821-24.257-62.544-69.117-94.399-109.384c-3.28,1.051-4.624,0.22-6.743-1.497c1.878,8.574,11.481,13.188,6.743,23.975
	c-19.49,0.011-33.44-5.519-47.949-10.491c0.999-10.486,8.233-14.74,11.238-23.223c-17.854,1.297-46.344-18.098-30.716-38.211
	c13.109-16.873,51.676-32.949,80.164-34.461c46.685-2.481,55.903,56.953,93.65,57.687c2.628-1.366,1.672-6.319,5.245-6.743
	c-0.679-2.029-2.758,0.632-2.998,1.499c-3.945-6.012,0.437-11.689-3.745-17.231c3.25-4.99,8.27-8.213,11.986-12.736
	c-1.187-6.805-4.55-11.433-5.243-18.73c1.867-0.63,4.013-0.98,6.743-0.747c2.885,4.354,4.102,10.381,5.244,16.479
	c23.308-1.597,49.724-5.496,75.669-4.494c20.363,0.786,44.091,13.512,60.685,0c1.408-1.089,0.092-4.903,1.498-5.992
	c14.449-0.378,32.978,8.427,38.959-4.495c2.901-0.013,4.294,4.148,2.996,5.994c66.85-1.109,119.677-22.65,188.05-24.726
	c2.552,0.555,1.233-2.759,2.997-2.995c15.309,3.245,35.131,2.928,45.701-2.998c10.363,4.869,31.584-0.631,39.706-7.492
	c5.122-0.376,9.164,0.326,11.987,2.248c13.712-6.983,27.589-10.499,42.705-14.234c34.48-8.524,63.771-34.992,107.136-37.459
	c1.336-3.012,7.11-7.118,11.237-9.742c8.376-4.814,17.702-7.055,26.971-8.988c1.242-0.571,4.981-0.902,5.405,0.174
	c1.198,1.301,2.462,0.697,5.083,0.575c-3.153-6.509-4.181-8.424-13.751-13.908c-4.268-1.175-14-11.334-4.229-28.797
	c0.691-8.797,2.3-16.68,5.244-23.224c0.986-3.313,0.986-2.646,2.248-5.246c9.537-35.46,9.333-71.598,20.978-111.63
	C965,966.667,1013.333,959,1029.715,955.218z M432.03,1505.086c47.156-20.324,99.923,7.084,95.147,57.689
	c-2.508-1.754-4.81-7.655-8.24-5.994c5.268,3.083,30.759,23.715,37.46,23.225c3.25-0.236,17.184-16.218,21.726-20.228
	c22.502-19.87,49.293-40.062,76.418-51.694c60.974-26.149,116.882-56.428,200.785-56.94c1.626-13.068,17.768-4.219,19.479-2.247
	c4.624-2.716-2.677-5.563-2.997-8.241c4.909-7.409-3.472-18.156,0-26.222c2.887-6.698,13.458-4.088,13.486-13.486
	c-2.731-2.194-3.657,3.806-8.24,2.249c-5.092-5.366,0.162-15.744,2.995-20.229c-8.761-2.461-1.911-13.176-2.995-20.228
	c-6.128-39.828-53.124-19.462-90.653-13.485c-44.438,7.076-102.877,8.188-136.354,21.726c-2.928-0.817-4.005-3.487-7.492-3.746
	c-66.027,12.175-133.728-4.362-209.775-4.494c0.194,3.303,1.196,5.794,0.75,9.738c-9.642,8.855-34.778,6.38-35.962-8.241
	c-29.511,19.008-57.61,42.341-101.891,44.205c-4.373,13.855-12.835,23.624-20.977,33.713c17.984,31.152,54.489,54.24,68.925,80.164
	c37.123,40.435,74.959,86.723,96.647,146.842c2.75-0.496,5.695-0.797,8.241-1.497c6.298-24.135,0.711-54.038,1.498-81.663
	c-12.632-4.641-17.716-25.786-11.238-40.456c-13.517-5.759-22.471-37.802,0-40.458C435.52,1503.788,430.15,1508.231,432.03,1505.086
	z M297.923,1393.456c9.579-5.655,26.111-4.357,29.219-16.483c-13.238-9.237-32.426-12.525-50.945-16.481
	C278.338,1374.938,294.281,1378.439,297.923,1393.456z M449.262,1579.257c1.007-1.095,1.531-5.934-0.749-5.994
	C447.506,1574.358,446.981,1579.196,449.262,1579.257z M643.303,1685.643c12.391-2.465,22.876-10.424,38.211-7.492
	c0.164-2.41-1.325-3.169-0.751-5.993c-2.212-1.283-5.881-1.109-5.993-4.494c-0.624-3.372,3.525-1.97,2.248-5.994
	c-0.158-0.841-0.832-1.166-1.497-1.497C666.537,1670.418,653.728,1676.836,643.303,1685.643z"/>
</svg>
